<svg width="125" height="22" viewBox="0 0 125 22" fill="none" xmlns="http://www.w3.org/2000/svg">
<path d="M1.74795 10.375C2.19795 9.425 2.88962 8.65 3.82295 8.05C4.77295 7.45 5.88962 7.15 7.17295 7.15C8.42295 7.15 9.53962 7.44167 10.5229 8.025C11.5063 8.59167 12.2729 9.40833 12.8229 10.475C13.3896 11.525 13.673 12.75 13.673 14.15C13.673 15.55 13.3896 16.7833 12.8229 17.85C12.2729 18.9167 11.4979 19.7417 10.4979 20.325C9.51462 20.9083 8.40628 21.2 7.17295 21.2C5.87295 21.2 4.74795 20.9083 3.79795 20.325C2.86462 19.725 2.18128 18.95 1.74795 18V21H0.0229494V2.5H1.74795V10.375ZM11.8979 14.15C11.8979 13.0167 11.6729 12.0417 11.2229 11.225C10.7896 10.3917 10.1896 9.75833 9.42295 9.325C8.65628 8.89167 7.78962 8.675 6.82295 8.675C5.88962 8.675 5.03128 8.9 4.24795 9.35C3.48128 9.8 2.87295 10.4417 2.42295 11.275C1.97295 12.1083 1.74795 13.075 1.74795 14.175C1.74795 15.275 1.97295 16.2417 2.42295 17.075C2.87295 17.9083 3.48128 18.55 4.24795 19C5.03128 19.45 5.88962 19.675 6.82295 19.675C7.78962 19.675 8.65628 19.4583 9.42295 19.025C10.1896 18.575 10.7896 17.9333 11.2229 17.1C11.6729 16.25 11.8979 15.2667 11.8979 14.15ZM29.2431 13.475C29.2431 14.075 29.2264 14.5333 29.1931 14.85H17.8681C17.9181 15.8833 18.1681 16.7667 18.6181 17.5C19.0681 18.2333 19.6597 18.7917 20.3931 19.175C21.1264 19.5417 21.9264 19.725 22.7931 19.725C23.9264 19.725 24.8764 19.45 25.6431 18.9C26.4264 18.35 26.9431 17.6083 27.1931 16.675H29.0431C28.7097 18.0083 27.9931 19.1 26.8931 19.95C25.8097 20.7833 24.4431 21.2 22.7931 21.2C21.5097 21.2 20.3597 20.9167 19.3431 20.35C18.3264 19.7667 17.5264 18.95 16.9431 17.9C16.3764 16.8333 16.0931 15.5917 16.0931 14.175C16.0931 12.7583 16.3764 11.5167 16.9431 10.45C17.5097 9.38333 18.3014 8.56667 19.3181 8C20.3347 7.43333 21.4931 7.15 22.7931 7.15C24.0931 7.15 25.2264 7.43333 26.1931 8C27.1764 8.56667 27.9264 9.33333 28.4431 10.3C28.9764 11.25 29.2431 12.3083 29.2431 13.475ZM27.4681 13.425C27.4847 12.4083 27.2764 11.5417 26.8431 10.825C26.4264 10.1083 25.8514 9.56667 25.1181 9.2C24.3847 8.83333 23.5847 8.65 22.7181 8.65C21.4181 8.65 20.3097 9.06667 19.3931 9.9C18.4764 10.7333 17.9681 11.9083 17.8681 13.425H27.4681ZM38.8448 7.1C40.4782 7.1 41.8115 7.60833 42.8448 8.625C43.8782 9.625 44.3948 11.0833 44.3948 13V21H42.6698V13.2C42.6698 11.7167 42.2948 10.5833 41.5448 9.8C40.8115 9.01667 39.8032 8.625 38.5198 8.625C37.2032 8.625 36.1532 9.04167 35.3698 9.875C34.5865 10.7083 34.1948 11.9333 34.1948 13.55V21H32.4448V7.35H34.1948V9.675C34.6282 8.84167 35.2532 8.20833 36.0698 7.775C36.8865 7.325 37.8115 7.1 38.8448 7.1Z" fill="#02075D"/>
<path d="M51.0401 3.45L55.3901 16.7L59.7401 3.45H64.2901L58.0651 21H52.7151L46.4901 3.45H51.0401ZM68.2269 5.6C67.4769 5.6 66.8602 5.38333 66.3769 4.95C65.9102 4.5 65.6769 3.95 65.6769 3.3C65.6769 2.63333 65.9102 2.08333 66.3769 1.65C66.8602 1.2 67.4769 0.974999 68.2269 0.974999C68.9602 0.974999 69.5602 1.2 70.0269 1.65C70.5102 2.08333 70.7519 2.63333 70.7519 3.3C70.7519 3.95 70.5102 4.5 70.0269 4.95C69.5602 5.38333 68.9602 5.6 68.2269 5.6ZM70.3519 7.05V21H66.0769V7.05H70.3519ZM79.0999 21.2C77.8999 21.2 76.8249 20.9917 75.8749 20.575C74.9249 20.1583 74.1749 19.5917 73.6249 18.875C73.0749 18.1417 72.7666 17.325 72.6999 16.425H76.9249C76.9749 16.9417 77.1916 17.3583 77.5749 17.675C77.9749 17.975 78.4749 18.125 79.0749 18.125C79.6082 18.125 80.0166 18.0167 80.2999 17.8C80.5999 17.5833 80.7499 17.2917 80.7499 16.925C80.7499 16.525 80.5416 16.225 80.1249 16.025C79.7082 15.825 79.0249 15.6167 78.0749 15.4C77.0749 15.1667 76.2416 14.925 75.5749 14.675C74.9249 14.425 74.3582 14.025 73.8749 13.475C73.4082 12.9083 73.1749 12.1583 73.1749 11.225C73.1749 10.4083 73.3916 9.675 73.8249 9.025C74.2749 8.35833 74.9249 7.83333 75.7749 7.45C76.6249 7.05 77.6416 6.85 78.8249 6.85C80.5749 6.85 81.9499 7.28333 82.9499 8.15C83.9666 9.01667 84.5499 10.1667 84.6999 11.6H80.7499C80.6832 11.0833 80.4666 10.6833 80.0999 10.4C79.7499 10.1 79.2832 9.95 78.6999 9.95C78.1999 9.95 77.8166 10.05 77.5499 10.25C77.2832 10.45 77.1499 10.7333 77.1499 11.1C77.1499 11.5 77.3582 11.8 77.7749 12C78.2082 12.2 78.8749 12.4 79.7749 12.6C80.7916 12.85 81.6332 13.1083 82.2999 13.375C82.9666 13.625 83.5416 14.0417 84.0249 14.625C84.5082 15.1917 84.7499 15.9583 84.7499 16.925C84.7499 17.7417 84.5249 18.475 84.0749 19.125C83.6249 19.775 82.9666 20.2833 82.0999 20.65C81.2499 21.0167 80.2499 21.2 79.0999 21.2ZM89.5403 5.6C88.7903 5.6 88.1737 5.38333 87.6903 4.95C87.2237 4.5 86.9903 3.95 86.9903 3.3C86.9903 2.63333 87.2237 2.08333 87.6903 1.65C88.1737 1.2 88.7903 0.974999 89.5403 0.974999C90.2737 0.974999 90.8737 1.2 91.3403 1.65C91.8237 2.08333 92.0653 2.63333 92.0653 3.3C92.0653 3.95 91.8237 4.5 91.3403 4.95C90.8737 5.38333 90.2737 5.6 89.5403 5.6ZM91.6653 7.05V21H87.3903V7.05H91.6653ZM101.113 21.2C99.7467 21.2 98.5134 20.9083 97.4134 20.325C96.33 19.7417 95.4717 18.9083 94.8384 17.825C94.2217 16.7417 93.9134 15.475 93.9134 14.025C93.9134 12.5917 94.23 11.3333 94.8634 10.25C95.4967 9.15 96.3634 8.30833 97.4634 7.725C98.5634 7.14167 99.7967 6.85 101.163 6.85C102.53 6.85 103.763 7.14167 104.863 7.725C105.963 8.30833 106.83 9.15 107.463 10.25C108.097 11.3333 108.413 12.5917 108.413 14.025C108.413 15.4583 108.088 16.725 107.438 17.825C106.805 18.9083 105.93 19.7417 104.813 20.325C103.713 20.9083 102.48 21.2 101.113 21.2ZM101.113 17.525C101.93 17.525 102.622 17.225 103.188 16.625C103.772 16.0083 104.063 15.1417 104.063 14.025C104.063 12.9083 103.78 12.05 103.213 11.45C102.663 10.8333 101.98 10.525 101.163 10.525C100.33 10.525 99.6384 10.825 99.0884 11.425C98.5384 12.025 98.2634 12.8917 98.2634 14.025C98.2634 15.1417 98.53 16.0083 99.0634 16.625C99.6134 17.225 100.297 17.525 101.113 17.525ZM119.181 6.9C120.815 6.9 122.115 7.43333 123.081 8.5C124.065 9.55 124.556 11 124.556 12.85V21H120.306V13.425C120.306 12.4917 120.065 11.7667 119.581 11.25C119.098 10.7333 118.448 10.475 117.631 10.475C116.815 10.475 116.165 10.7333 115.681 11.25C115.198 11.7667 114.956 12.4917 114.956 13.425V21H110.681V7.05H114.956V8.9C115.39 8.28333 115.973 7.8 116.706 7.45C117.44 7.08333 118.265 6.9 119.181 6.9Z" fill="#465BC6"/>
</svg>
