<svg width="95" height="64" viewBox="0 0 95 64" fill="none" xmlns="http://www.w3.org/2000/svg">
<line x1="2.36717" y1="14.5894" x2="80.0244" y2="45.2435" stroke="#02075D" stroke-width="2"/>
<line x1="78.9434" y1="45.474" x2="92.338" y2="31.8026" stroke="#02075D" stroke-width="2"/>
<line x1="1.56905" y1="15.4069" x2="15.8743" y2="1.61249" stroke="#02075D" stroke-width="2"/>
<line x1="2.36717" y1="19.1875" x2="80.0244" y2="49.8417" stroke="#02075D" stroke-width="2"/>
<line x1="79.3106" y1="49.5014" x2="93.6159" y2="35.707" stroke="#02075D"/>
<line x1="2.36717" y1="23.2749" x2="80.0244" y2="53.9291" stroke="#02075D" stroke-width="2"/>
<line x1="79.3106" y1="53.5886" x2="93.6159" y2="39.7942" stroke="#02075D"/>
<line x1="2.36717" y1="27.3821" x2="80.0244" y2="58.0363" stroke="#02075D" stroke-width="2"/>
<line x1="79.3106" y1="57.6962" x2="93.6159" y2="43.9019" stroke="#02075D"/>
<line x1="2.36717" y1="31.4695" x2="80.0244" y2="62.1237" stroke="#02075D" stroke-width="2"/>
<line x1="78.9636" y1="62.3339" x2="93.2689" y2="48.5395" stroke="#02075D" stroke-width="2"/>
<path d="M79.2996 45L2.48145 14.6737L15.6633 2L92.4814 32.3263L79.2996 45Z" fill="#02075D" stroke="#02075D" stroke-width="2"/>
<path d="M78.4814 62L2.48145 31.64V16L78.4814 46.82V62Z" fill="#02075D" stroke="#02075D" stroke-width="2"/>
</svg>
