<svg width="112" height="36" viewBox="0 0 112 36" fill="none" xmlns="http://www.w3.org/2000/svg">
<path d="M107 12.8985L57 29V23.3171C78.3333 7.0262 96.6825 5.79491 103.19 7.21563L107 12.8985Z" fill="#02075D"/>
<path d="M57 23.3171C78.3333 7.0262 96.6825 5.79491 103.19 7.21563L107 12.8985L57 29V23.3171ZM57 23.3171C63.6667 15.4243 81.6667 -0.0773409 100.333 1.05923" stroke="#02075D" stroke-width="2"/>
<path d="M5 12.8985L56 29V23.3171C34.24 7.0262 15.5238 5.79491 8.88572 7.21563L5 12.8985Z" fill="#02075D"/>
<path d="M56 23.3171C34.24 7.0262 15.5238 5.79491 8.88571 7.21563L5 12.8985L56 29V23.3171ZM56 23.3171C49.2 15.4243 30.84 -0.0773409 11.8 1.05923" stroke="#02075D" stroke-width="2"/>
<path d="M1 15L56.2381 34L111 15.4634" stroke="#02075D" stroke-width="2"/>
</svg>
