<svg width="91" height="60" viewBox="0 0 91 60" fill="none" xmlns="http://www.w3.org/2000/svg">
<path d="M65.7503 20.3401C67.9787 22.2193 68.8453 24.926 69 26.3354L63.429 24.0985C63.2133 22.2428 62.7313 20.8441 62.1103 19.8012C58.9375 20.6301 54.9752 24.0983 52.7517 30.206C50.6808 35.8945 48.6197 46.8263 51.0014 52.0629C51.8376 51.7347 52.6095 51.2996 53.2161 50.8775L60.2037 53.4524C55.152 56.179 52.357 55.0435 51.0014 52.0629C48.4244 53.0742 45.2368 53.0688 44.3956 48.5285C43.0029 41.0116 44.8599 20.8099 56.93 17.0514C58.2475 16.8292 60.5934 17.2535 62.1103 19.8012C63.5746 19.4187 64.8708 19.5983 65.7503 20.3401Z" fill="#02075D" stroke="#02075D" stroke-width="2"/>
<path d="M45.8803 12.3401C48.0195 14.2193 48.8514 16.926 49 18.3354L43.6519 16.0985C43.4448 14.2428 42.982 12.8441 42.3859 11.8012C39.34 12.6301 35.5362 16.0983 33.4016 22.206C31.4136 27.8945 29.4349 38.8263 31.7213 44.0629C32.5241 43.7347 33.2651 43.2996 33.8474 42.8775L40.5556 45.4524C35.7059 48.179 33.0227 47.0435 31.7213 44.0629C29.2474 45.0742 26.1873 45.0688 25.3798 40.5285C24.0428 33.0116 25.8255 12.8099 37.4128 9.0514C38.6776 8.82917 40.9297 9.25345 42.3859 11.8012C43.7916 11.4187 45.036 11.5983 45.8803 12.3401Z" fill="#02075D" stroke="#02075D" stroke-width="2"/>
<path d="M26.7503 4.34005C28.9787 6.21928 29.8453 8.92595 30 10.3354L24.429 8.09851C24.2133 6.24275 23.7313 4.84408 23.1103 3.8012C19.9375 4.63008 15.9752 8.09834 13.7517 14.206C11.6808 19.8945 9.6197 30.8263 12.0014 36.0629C12.8376 35.7347 13.6095 35.2996 14.2161 34.8775L21.2037 37.4524C16.152 40.179 13.357 39.0435 12.0014 36.0629C9.4244 37.0742 6.23678 37.0688 5.39558 32.5285C4.00287 25.0116 5.85994 4.80986 17.93 1.0514C19.2475 0.829166 21.5934 1.25345 23.1103 3.8012C24.5746 3.41868 25.8708 3.5983 26.7503 4.34005Z" fill="#02075D" stroke="#02075D" stroke-width="2"/>
<line x1="0.367167" y1="19.4982" x2="77.2113" y2="49.8314" stroke="#02075D" stroke-width="2"/>
<line x1="76.1506" y1="50.0419" x2="90.3061" y2="36.3919" stroke="#02075D" stroke-width="2"/>
<line x1="0.367167" y1="24.0482" x2="77.2113" y2="54.3815" stroke="#02075D" stroke-width="2"/>
<line x1="76.1506" y1="54.5918" x2="90.3061" y2="40.9419" stroke="#02075D" stroke-width="2"/>
<line x1="0.367167" y1="28.0927" x2="77.2113" y2="58.4259" stroke="#02075D" stroke-width="2"/>
<line x1="76.1506" y1="58.6362" x2="90.3061" y2="44.9863" stroke="#02075D" stroke-width="2"/>
<path d="M61.2671 26.4216L70.4331 30.624" stroke="#02075D" stroke-width="2"/>
<line x1="69.3118" y1="30.7679" x2="74.3674" y2="25.2068" stroke="#02075D" stroke-width="2"/>
</svg>
