<svg width="67" height="95" viewBox="0 0 67 95" fill="none" xmlns="http://www.w3.org/2000/svg">
<rect x="0.75" y="94.25" width="93.5" height="65.5" transform="rotate(-90 0.75 94.25)" stroke="#02075D" stroke-opacity="0.33" stroke-width="1.5" stroke-linejoin="round"/>
<path d="M24.5146 42.624C25.2226 41.46 26.4346 40.878 28.1506 40.878C29.8666 40.878 31.0726 41.46 31.7686 42.624C32.4766 43.788 32.8306 45.384 32.8306 47.412C32.8306 49.452 32.4766 51.054 31.7686 52.218C31.0726 53.382 29.8666 53.964 28.1506 53.964C26.4346 53.964 25.2226 53.382 24.5146 52.218C23.8186 51.054 23.4706 49.452 23.4706 47.412C23.4706 45.384 23.8186 43.788 24.5146 42.624ZM29.8606 43.38C29.4766 42.96 28.9066 42.75 28.1506 42.75C27.3946 42.75 26.8246 42.96 26.4406 43.38C26.0566 43.8 25.7986 44.34 25.6666 45C25.5466 45.66 25.4866 46.464 25.4866 47.412C25.4866 48.372 25.5466 49.182 25.6666 49.842C25.7986 50.502 26.0566 51.042 26.4406 51.462C26.8246 51.882 27.3946 52.092 28.1506 52.092C28.9066 52.092 29.4766 51.882 29.8606 51.462C30.2446 51.042 30.4966 50.502 30.6166 49.842C30.7486 49.182 30.8146 48.372 30.8146 47.412C30.8146 46.464 30.7486 45.66 30.6166 45C30.4966 44.34 30.2446 43.8 29.8606 43.38ZM34.9659 44.118C35.0379 43.002 35.4639 42.132 36.2439 41.508C37.0359 40.884 38.0439 40.572 39.2679 40.572C40.1079 40.572 40.8339 40.722 41.4459 41.022C42.0579 41.322 42.5199 41.73 42.8319 42.246C43.1439 42.762 43.2999 43.344 43.2999 43.992C43.2999 44.736 43.1019 45.372 42.7059 45.9C42.3099 46.428 41.8359 46.782 41.2839 46.962V47.034C41.9919 47.25 42.5439 47.646 42.9399 48.222C43.3359 48.786 43.5339 49.512 43.5339 50.4C43.5339 51.108 43.3719 51.738 43.0479 52.29C42.7239 52.842 42.2439 53.28 41.6079 53.604C40.9719 53.916 40.2099 54.072 39.3219 54.072C38.0259 54.072 36.9579 53.742 36.1179 53.082C35.2899 52.41 34.8459 51.45 34.7859 50.202H36.7659C36.8139 50.838 37.0599 51.36 37.5039 51.768C37.9479 52.164 38.5479 52.362 39.3039 52.362C40.0359 52.362 40.5999 52.164 40.9959 51.768C41.3919 51.36 41.5899 50.838 41.5899 50.202C41.5899 49.362 41.3199 48.768 40.7799 48.42C40.2519 48.06 39.4359 47.88 38.3319 47.88H37.8639V46.188H38.3499C39.3219 46.176 40.0599 46.014 40.5639 45.702C41.0799 45.39 41.3379 44.898 41.3379 44.226C41.3379 43.65 41.1519 43.194 40.7799 42.858C40.4079 42.51 39.8799 42.336 39.1959 42.336C38.5239 42.336 38.0019 42.51 37.6299 42.858C37.2579 43.194 37.0359 43.614 36.9639 44.118H34.9659Z" fill="#02075D"/>
<line opacity="0.7" x1="7" y1="71" x2="7" y2="81" stroke="#02075D" stroke-width="2"/>
<line opacity="0.7" x1="7" y1="13" x2="7" y2="24" stroke="#02075D" stroke-width="2"/>
<line opacity="0.7" x1="7" y1="42" x2="7" y2="53" stroke="#02075D" stroke-width="2"/>
</svg>
