<svg width="68" height="95" viewBox="0 0 68 95" fill="none" xmlns="http://www.w3.org/2000/svg">
<rect x="0.75" y="94.25" width="93.5" height="66.5" transform="rotate(-90 0.75 94.25)" stroke="#02075D" stroke-opacity="0.33" stroke-width="1.5" stroke-linejoin="round"/>
<path d="M25.164 42.624C25.872 41.46 27.084 40.878 28.8 40.878C30.516 40.878 31.722 41.46 32.418 42.624C33.126 43.788 33.48 45.384 33.48 47.412C33.48 49.452 33.126 51.054 32.418 52.218C31.722 53.382 30.516 53.964 28.8 53.964C27.084 53.964 25.872 53.382 25.164 52.218C24.468 51.054 24.12 49.452 24.12 47.412C24.12 45.384 24.468 43.788 25.164 42.624ZM30.51 43.38C30.126 42.96 29.556 42.75 28.8 42.75C28.044 42.75 27.474 42.96 27.09 43.38C26.706 43.8 26.448 44.34 26.316 45C26.196 45.66 26.136 46.464 26.136 47.412C26.136 48.372 26.196 49.182 26.316 49.842C26.448 50.502 26.706 51.042 27.09 51.462C27.474 51.882 28.044 52.092 28.8 52.092C29.556 52.092 30.126 51.882 30.51 51.462C30.894 51.042 31.146 50.502 31.266 49.842C31.398 49.182 31.464 48.372 31.464 47.412C31.464 46.464 31.398 45.66 31.266 45C31.146 44.34 30.894 43.8 30.51 43.38ZM36.8213 51.174C37.9733 50.19 38.8793 49.38 39.5393 48.744C40.1993 48.108 40.7453 47.454 41.1773 46.782C41.6213 46.098 41.8433 45.426 41.8433 44.766C41.8433 44.082 41.6693 43.542 41.3213 43.146C40.9853 42.75 40.4513 42.552 39.7193 42.552C39.0113 42.552 38.4593 42.78 38.0633 43.236C37.6793 43.68 37.4753 44.28 37.4513 45.036H35.4713C35.5073 43.668 35.9153 42.624 36.6953 41.904C37.4873 41.172 38.4893 40.806 39.7013 40.806C40.5773 40.806 41.3273 40.968 41.9513 41.292C42.5753 41.616 43.0493 42.072 43.3733 42.66C43.7093 43.248 43.8773 43.92 43.8773 44.676C43.8773 45.504 43.6553 46.308 43.2113 47.088C42.7793 47.868 42.2633 48.57 41.6633 49.194C41.0633 49.818 40.2953 50.544 39.3593 51.372L38.5313 52.11H44.2373V53.82H35.4893V52.326L36.8213 51.174Z" fill="#02075D"/>
<line opacity="0.7" x1="7" y1="26" x2="7" y2="37" stroke="#02075D" stroke-width="2"/>
<line opacity="0.7" x1="7" y1="58" x2="7" y2="69" stroke="#02075D" stroke-width="2"/>
</svg>
