<svg width="68" height="95" viewBox="0 0 68 95" fill="none" xmlns="http://www.w3.org/2000/svg">
<rect x="0.75" y="94.25" width="93.5" height="66.5" transform="rotate(-90 0.75 94.25)" stroke="#02075D" stroke-opacity="0.33" stroke-width="1.5" stroke-linejoin="round"/>
<path d="M29.0087 34.66V35.728H26.7887V43H25.4207V35.728H23.1887V34.66H29.0087ZM33.2621 43.108C32.6381 43.108 32.0741 42.968 31.5701 42.688C31.0661 42.4 30.6701 42 30.3821 41.488C30.0941 40.968 29.9501 40.368 29.9501 39.688C29.9501 39.016 30.0981 38.42 30.3941 37.9C30.6901 37.38 31.0941 36.98 31.6061 36.7C32.1181 36.42 32.6901 36.28 33.3221 36.28C33.9541 36.28 34.5261 36.42 35.0381 36.7C35.5501 36.98 35.9541 37.38 36.2501 37.9C36.5461 38.42 36.6941 39.016 36.6941 39.688C36.6941 40.36 36.5421 40.956 36.2381 41.476C35.9341 41.996 35.5181 42.4 34.9901 42.688C34.4701 42.968 33.8941 43.108 33.2621 43.108ZM33.2621 41.956C33.6141 41.956 33.9421 41.868 34.2461 41.692C34.5581 41.516 34.8101 41.26 35.0021 40.924C35.1941 40.58 35.2901 40.168 35.2901 39.688C35.2901 39.208 35.1981 38.8 35.0141 38.464C34.8301 38.12 34.5861 37.864 34.2821 37.696C33.9781 37.52 33.6501 37.432 33.2981 37.432C32.9461 37.432 32.6221 37.52 32.3261 37.696C32.0301 37.864 31.7901 38.12 31.6061 38.464C31.4301 38.8 31.3421 39.208 31.3421 39.688C31.3421 40.168 31.4261 40.58 31.5941 40.924C31.7701 41.268 32.0021 41.528 32.2901 41.704C32.5861 41.872 32.9101 41.956 33.2621 41.956ZM39.4145 37.36C39.6465 37.056 39.9625 36.8 40.3625 36.592C40.7625 36.384 41.2145 36.28 41.7185 36.28C42.2945 36.28 42.8185 36.424 43.2905 36.712C43.7705 36.992 44.1465 37.388 44.4185 37.9C44.6905 38.412 44.8265 39 44.8265 39.664C44.8265 40.328 44.6905 40.924 44.4185 41.452C44.1465 41.972 43.7705 42.38 43.2905 42.676C42.8185 42.964 42.2945 43.108 41.7185 43.108C41.2145 43.108 40.7665 43.008 40.3745 42.808C39.9825 42.6 39.6625 42.344 39.4145 42.04V46.144H38.0465V36.388H39.4145V37.36ZM43.4345 39.664C43.4345 39.208 43.3385 38.816 43.1465 38.488C42.9625 38.152 42.7145 37.9 42.4025 37.732C42.0985 37.556 41.7705 37.468 41.4185 37.468C41.0745 37.468 40.7465 37.556 40.4345 37.732C40.1305 37.908 39.8825 38.164 39.6905 38.5C39.5065 38.836 39.4145 39.232 39.4145 39.688C39.4145 40.144 39.5065 40.544 39.6905 40.888C39.8825 41.224 40.1305 41.48 40.4345 41.656C40.7465 41.832 41.0745 41.92 41.4185 41.92C41.7705 41.92 42.0985 41.832 42.4025 41.656C42.7145 41.472 42.9625 41.208 43.1465 40.864C43.3385 40.52 43.4345 40.12 43.4345 39.664ZM20.6217 56.812C20.6217 55.996 20.8097 55.264 21.1857 54.616C21.5697 53.968 22.0857 53.464 22.7337 53.104C23.3897 52.736 24.1057 52.552 24.8817 52.552C25.7697 52.552 26.5577 52.772 27.2457 53.212C27.9417 53.644 28.4457 54.26 28.7577 55.06H27.1137C26.8977 54.644 26.5977 54.332 26.2137 54.124C25.8297 53.908 25.3857 53.8 24.8817 53.8C24.3297 53.8 23.8377 53.924 23.4057 54.172C22.9737 54.42 22.6337 54.772 22.3857 55.228C22.1457 55.684 22.0257 56.212 22.0257 56.812C22.0257 57.412 22.1457 57.944 22.3857 58.408C22.6337 58.864 22.9737 59.216 23.4057 59.464C23.8377 59.712 24.3297 59.836 24.8817 59.836C25.6257 59.836 26.2297 59.628 26.6937 59.212C27.1657 58.788 27.4497 58.216 27.5457 57.496H24.4137V56.428H29.0097V57.496C28.9217 58.144 28.6897 58.74 28.3137 59.284C27.9457 59.828 27.4617 60.264 26.8617 60.592C26.2697 60.912 25.6097 61.072 24.8817 61.072C24.0977 61.072 23.3817 60.892 22.7337 60.532C22.0857 60.164 21.5697 59.656 21.1857 59.008C20.8097 58.36 20.6217 57.628 20.6217 56.812ZM36.347 54.388V61H34.979V60.22C34.763 60.492 34.479 60.708 34.127 60.868C33.783 61.02 33.415 61.096 33.023 61.096C32.503 61.096 32.035 60.988 31.619 60.772C31.211 60.556 30.887 60.236 30.647 59.812C30.415 59.388 30.299 58.876 30.299 58.276V54.388H31.655V58.072C31.655 58.664 31.803 59.12 32.099 59.44C32.395 59.752 32.799 59.908 33.311 59.908C33.823 59.908 34.227 59.752 34.523 59.44C34.827 59.12 34.979 58.664 34.979 58.072V54.388H36.347ZM39.52 52.12V61H38.152V52.12H39.52ZM47.376 57.508C47.376 57.74 47.36 57.956 47.328 58.156H42.264C42.304 58.708 42.5 59.148 42.852 59.476C43.204 59.796 43.64 59.956 44.16 59.956C44.896 59.956 45.416 59.648 45.72 59.032H47.196C46.996 59.64 46.632 60.14 46.104 60.532C45.584 60.916 44.936 61.108 44.16 61.108C43.528 61.108 42.96 60.968 42.456 60.688C41.96 60.4 41.568 60 41.28 59.488C41 58.968 40.86 58.368 40.86 57.688C40.86 57.008 40.996 56.412 41.268 55.9C41.548 55.38 41.936 54.98 42.432 54.7C42.936 54.42 43.512 54.28 44.16 54.28C44.784 54.28 45.34 54.416 45.828 54.688C46.316 54.96 46.696 55.34 46.968 55.828C47.24 56.316 47.376 56.876 47.376 57.508ZM45.948 57.172C45.94 56.636 45.76 56.212 45.408 55.9C45.064 55.588 44.628 55.432 44.1 55.432C43.62 55.432 43.208 55.588 42.864 55.9C42.528 56.212 42.332 56.636 42.276 57.172H45.948Z" fill="#02075D"/>
<line opacity="0.7" y1="8" x2="68" y2="8" stroke="#02075D" stroke-width="2" stroke-dasharray="4 4"/>
<path d="M47 74V95L68 74H47Z" fill="#02075D" fill-opacity="0.5"/>
</svg>
