<svg width="96" height="60" viewBox="0 0 96 60" fill="none" xmlns="http://www.w3.org/2000/svg">
<line x1="2.29832" y1="8.04128" x2="81.7339" y2="39.3974" stroke="#02075D" stroke-width="2"/>
<line x1="80.6731" y1="39.6078" x2="95.3059" y2="25.4975" stroke="#02075D" stroke-width="2"/>
<line x1="2.29832" y1="12.7446" x2="81.7339" y2="44.1008" stroke="#02075D" stroke-width="2"/>
<line x1="80.6731" y1="44.3112" x2="95.3059" y2="30.2009" stroke="#02075D" stroke-width="2"/>
<line x1="2.29832" y1="16.9256" x2="81.7339" y2="48.2817" stroke="#02075D" stroke-width="2"/>
<line x1="80.6731" y1="48.4918" x2="95.3059" y2="34.3816" stroke="#02075D" stroke-width="2"/>
<line x1="2.29832" y1="21.127" x2="81.7339" y2="52.4831" stroke="#02075D" stroke-width="2"/>
<line x1="80.6731" y1="52.6935" x2="95.3059" y2="38.5832" stroke="#02075D" stroke-width="2"/>
<line x1="2.29832" y1="25.3079" x2="81.7339" y2="56.664" stroke="#02075D" stroke-width="2"/>
<line x1="80.6731" y1="56.8741" x2="95.3059" y2="42.7639" stroke="#02075D" stroke-width="2"/>
<line x1="1.7208" y1="26.3402" x2="83.6814" y2="58.0068" stroke="#02075D" stroke-width="4"/>
<line x1="82.179" y1="58.3865" x2="90.2921" y2="50.4198" stroke="#02075D" stroke-width="3"/>
<path d="M80.9286 39L2 8.0125L8.07143 2L87 32.9875L80.9286 39Z" fill="#02075D" stroke="#02075D" stroke-width="2"/>
</svg>
